<svg width="660" height="147" viewBox="0 0 660 147" fill="none" xmlns="http://www.w3.org/2000/svg">
<path d="M247.422 41.0115C247.383 37.7205 246.94 34.4561 246.118 31.2978C245.323 28.259 244.175 25.2865 242.689 22.4998C239.833 17.1254 235.739 12.3482 230.824 8.69894C225.96 5.07621 220.314 2.56817 214.486 1.44022C208.253 0.232641 202.008 0.564392 195.932 2.44874C186.765 5.27526 181.224 11.2335 175.839 17.8155L163.452 3.62977C161.861 1.78524 159.553 0.723633 157.154 0.723633H112.965C108.311 0.723633 104.529 4.57195 104.529 9.30936V15.7586C110.123 23.1633 112.77 32.4391 112.405 43.4797C112.131 52.1186 108.571 58.7005 104.529 63.6502V72.2625C109.536 76.7345 112.939 82.0293 114.843 88.2927C115.795 91.4112 116.408 94.795 116.695 98.2718V13.1046H155.485L170.349 30.1301C171.81 31.8021 173.922 32.7443 176.126 32.7045C178.329 32.6647 180.402 31.6429 181.811 29.9178C182.319 29.2941 182.815 28.6704 183.31 28.0599C188.786 21.2657 192.75 16.3558 199.491 14.2724C207.706 11.7378 216.52 13.3435 223.678 18.678C230.941 24.0789 235.166 32.2798 235.283 41.1708C235.452 53.6313 230.902 65.3621 221.37 77.0397C212.621 87.7752 201.799 97.0775 191.342 106.061C190.573 106.725 189.803 107.388 189.034 108.052C185.266 111.303 181.511 114.435 177.534 117.752L176.269 118.801C176.1 118.947 175.852 118.947 175.682 118.801C174.77 118.044 173.857 117.275 172.944 116.518C167.729 112.192 162.8 108.105 158.015 103.713C155.798 101.682 153.425 99.5059 151.052 97.3031C150.895 97.1571 150.739 97.0244 150.569 96.8917C150.139 96.56 149.67 96.2946 149.174 96.0955C148.575 95.8567 147.936 95.7107 147.271 95.6709C147.14 95.6709 147.01 95.6709 146.866 95.6709C146.006 95.6709 145.197 95.8699 144.467 96.2017C143.724 96.5334 143.02 97.0377 142.433 97.6879C141.86 98.3249 141.442 99.0547 141.182 99.8377C141.038 100.262 140.934 100.713 140.882 101.178C140.856 101.417 140.842 101.669 140.842 101.908V134.008H116.708V107.203C116.447 110.374 115.925 113.493 115.13 116.465C113.109 123.963 109.523 130.319 104.555 135.282V137.79C104.555 142.527 108.337 146.376 112.992 146.376H144.585C149.24 146.376 153.021 142.527 153.021 137.79V115.735C157.063 119.305 161.222 122.755 165.264 126.112C166.177 126.869 167.077 127.625 167.989 128.382C170.245 130.253 173.075 131.288 175.982 131.288C178.89 131.288 181.732 130.253 183.988 128.368L185.253 127.32C189.269 123.963 193.05 120.804 196.897 117.5C197.666 116.837 198.435 116.186 199.191 115.523C210.053 106.181 221.292 96.5202 230.732 84.9487C236.157 78.2871 240.146 71.7184 242.937 64.8578C246.04 57.201 247.552 49.1726 247.448 40.9982L247.422 41.0115Z" fill="#0FFF94"/>
<path d="M238.972 146.403H207.379C202.724 146.403 198.942 142.555 198.942 137.817V128.953C198.942 125.529 201.668 122.769 205.018 122.769C208.369 122.769 211.095 125.542 211.095 128.953V134.022H235.23V97.4895C235.23 94.0658 237.955 91.3057 241.306 91.3057C244.657 91.3057 247.382 94.0791 247.382 97.4895V137.817C247.382 142.555 243.6 146.403 238.946 146.403H238.972Z" fill="#0FFF94"/>
<path d="M252.701 73.2309C252.701 59.8017 252.727 46.3724 252.675 32.9563C252.675 31.4834 253.027 30.3289 253.94 29.2009C271.216 7.49111 293.552 -2.52778 320.699 1.65229C348.615 5.95178 368.017 22.5393 377.587 49.5041C392.829 92.4725 365.135 137.591 322.394 144.889C294.569 149.64 271.633 139.78 253.874 117.487C253.014 116.412 252.688 115.297 252.688 113.904C252.727 100.342 252.714 86.7797 252.714 73.2044L252.701 73.2309ZM310.685 109.604C312.484 109.684 314.557 109.418 316.617 108.967C339.057 104.057 350.988 78.247 340.609 57.0548C333.138 41.7942 316.161 33.9649 301.01 38.7952C283.577 44.3553 273.015 63.5173 277.357 81.737C281.23 98.0194 294.973 109.617 310.698 109.604H310.685Z" fill="white"/>
<path d="M488.356 97.5552C494.393 101.205 500.483 104.31 506.937 106.605C514.851 109.432 522.935 110.64 531.28 109.167C533.562 108.768 535.753 108.052 537.643 106.645C542.311 103.155 541.751 97.25 536.509 94.8747C532.31 92.9771 527.747 92.6719 523.314 91.8093C512.778 89.7392 502.086 88.3458 492.059 84.0729C489.791 83.1042 489.021 82.0027 489.034 79.4549C489.152 56.1792 489.139 32.9036 489.048 9.62789C489.048 7.59757 489.726 6.77483 491.473 6.12459C502.451 1.97107 513.821 0.909463 525.4 1.49334C542.077 2.32936 556.81 8.47339 570.123 18.4923C574.139 21.5179 574.478 23.5349 571.649 27.6353C567.215 34.0581 562.795 40.4808 558.349 46.9035C556.158 50.0617 553.981 50.5262 550.747 48.4826C542.337 43.1613 533.419 39.1538 523.496 37.9329C518.854 37.3623 514.186 37.3756 509.545 38.132C507.928 38.3974 506.402 38.9414 505.046 39.9234C501.747 42.3253 501.695 46.3461 505.033 48.6816C507.954 50.7252 511.305 51.8665 514.643 52.9944C521.28 55.2503 528.242 55.9404 535.022 57.546C544.006 59.6693 552.847 62.2038 560.526 67.6976C571.505 75.5535 577.751 86.0501 578.077 99.9571C578.338 110.812 576.33 120.924 569.354 129.51C563.095 137.219 554.802 141.585 545.401 143.629C520.588 149.017 497.027 145.885 475.109 132.323C473.609 131.394 473.375 130.929 474.653 129.403C481.785 120.857 485.931 110.878 487.848 99.8908C487.913 99.4794 488.004 99.0813 488.096 98.6832C488.148 98.4178 488.226 98.1524 488.356 97.6083V97.5552Z" fill="white"/>
<path d="M561.331 143.177C564.213 141.293 567.094 139.422 569.611 137.033C578.282 128.806 582.298 118.389 583.223 106.592C583.849 98.6031 583.119 90.7074 580.003 83.2895C575.322 72.1824 567.12 64.4327 556.585 59.138C555.372 58.5275 554.877 57.864 554.942 56.4707C554.994 55.3029 555.307 54.7588 556.494 54.5465C558.958 54.1086 560.797 52.6224 562.205 50.5788C567.107 43.4926 572.023 36.4064 576.874 29.2803C579.99 24.6889 579.012 18.7041 574.657 15.307C569.611 11.3525 564.278 7.8492 558.567 4.95633C558.111 4.71747 557.511 4.63785 557.224 3.98762C558.019 3.19141 559.036 3.27103 560.014 3.27103C591.62 3.27103 623.214 3.25776 654.82 3.27103C658.366 3.27103 659.944 4.98287 659.957 8.67195C659.957 16.7932 659.957 24.9278 659.957 33.049C659.957 36.7381 658.236 38.4898 654.624 38.4898C635.874 38.4898 617.138 38.4898 598.388 38.4898C593.655 38.4898 592.285 39.9097 592.285 44.8063C592.285 46.4651 592.285 48.1105 592.285 49.7693C592.285 54.175 593.85 55.7806 598.127 55.7939C614.165 55.7939 630.202 55.7939 646.24 55.7939C646.853 55.7939 647.466 55.7806 648.066 55.8072C650.517 55.9399 652.316 57.6252 652.342 60.1332C652.395 69.0905 652.408 78.0345 652.342 86.9918C652.316 89.8183 650.4 91.3975 647.309 91.3975C632.145 91.3975 616.994 91.3975 601.83 91.3975C600.278 91.3975 598.714 91.3709 597.162 91.3975C594.176 91.4505 592.39 93.242 592.312 96.2941C592.259 98.3642 592.285 100.421 592.312 102.491C592.338 106.167 594.046 107.892 597.71 107.892C616.251 107.892 634.792 107.892 653.333 107.892C653.946 107.892 654.546 107.892 655.159 107.892C658.158 107.958 659.957 109.723 659.97 112.789C660.009 121.401 660.009 130.013 659.97 138.612C659.957 141.678 658.171 143.469 655.133 143.469C624.205 143.482 593.276 143.469 562.361 143.469C562.061 143.469 561.696 143.602 561.37 143.124L561.331 143.177Z" fill="white"/>
<path d="M483.817 49.4651C483.817 61.793 483.856 74.1209 483.817 86.4488C483.751 100.236 480.479 113.055 472.056 124.096C463.463 135.375 451.897 141.825 438.259 144.439C423.486 147.279 409.026 146.23 395.205 139.794C386.273 135.641 379.023 129.391 373.456 121.123C372.53 119.743 372.439 118.788 373.43 117.328C392.766 88.9037 391.267 51.177 369.792 24.3184C368.384 22.5535 366.936 20.8151 365.306 19.2758C363.99 18.0284 363.507 16.7014 363.624 14.9232C363.755 12.8 363.624 10.6502 363.664 8.51376C363.716 5.22278 365.476 3.43133 368.723 3.41806C377.589 3.40479 386.455 3.41806 395.322 3.41806C399.429 3.41806 400.981 4.98392 400.981 9.12418C400.981 34.6027 400.981 60.0812 400.981 85.573C400.981 90.6023 401.737 95.4326 404.293 99.8515C409.013 107.986 418.661 112.233 428.258 110.348C437.894 108.451 444.53 101.537 446.082 91.8895C446.46 89.5672 446.525 87.2317 446.525 84.8962C446.525 59.7627 446.525 34.616 446.525 9.48247C446.525 8.02276 446.525 6.57633 447.425 5.32894C448.429 3.94886 449.798 3.40479 451.48 3.40479C460.62 3.41806 469.748 3.40479 478.888 3.41806C482.161 3.41806 483.843 5.1697 483.843 8.56684C483.843 22.2085 483.843 35.8368 483.843 49.4784L483.817 49.4651Z" fill="white"/>
<path d="M110.031 89.8057C108.832 85.8645 106.941 82.4806 104.529 79.5612C101.752 76.2171 98.2703 73.4702 94.3065 71.1612C91.9334 69.7812 91.8943 68.7461 93.9675 66.9679C94.3847 66.6096 94.8281 66.3044 95.2453 65.9461C99.0657 62.5357 102.351 58.8466 104.542 54.5339C106.224 51.2164 107.254 47.5273 107.398 43.3207C107.606 36.898 106.719 31.0459 104.542 25.844C101.999 19.7663 97.7096 14.591 91.3597 10.4773C83.732 5.52757 75.1003 3.59015 66.2469 3.45745C46.2323 3.1655 26.2046 3.2982 6.1769 3.25839C1.36556 3.24512 0.0225586 4.63848 0.0225586 9.52186C0.0225586 30.7938 0.0225586 52.0656 0.0225586 73.3375V132.403C0.0225586 134.539 -0.0426357 136.675 0.0486363 138.799C0.179025 141.798 1.92623 143.496 4.84693 143.496C26.022 143.496 47.1971 143.616 68.3592 143.377C76.7823 143.284 84.9967 141.612 92.6506 137.684C97.7227 135.083 101.608 131.527 104.516 127.466C112.835 115.842 113.122 99.9705 110.018 89.7924L110.031 89.8057ZM52.5691 108.304C49.1921 108.304 45.802 108.344 42.4249 108.304C39.1782 108.264 37.3919 106.46 37.3398 103.195C37.3006 99.8909 37.3006 96.5867 37.3398 93.2824C37.3789 89.8986 39.1782 88.1336 42.5553 88.1204C48.84 88.1071 55.1378 88.0938 61.4225 88.1204C66.5468 88.1469 70.4845 91.1725 71.997 96.1355C73.7312 101.828 69.0763 108.079 62.8959 108.264C59.4536 108.37 55.9984 108.278 52.5561 108.278L52.5691 108.304ZM59.8057 56.4448C53.7948 56.6305 47.7708 56.5509 41.7599 56.4713C39.2043 56.4315 37.4441 54.587 37.3658 51.9993C37.2615 49.0401 37.2746 46.0809 37.3658 43.1216C37.4441 40.3217 39.2825 38.5567 42.0598 38.5037C45.0327 38.4506 48.0055 38.5037 50.9784 38.5037C53.7557 38.5037 56.5199 38.4771 59.2972 38.5037C63.5739 38.5435 67.5377 42.4183 67.7203 46.6913C67.9289 51.7737 64.4214 56.2988 59.8318 56.4448H59.8057Z" fill="white"/>
</svg>
