<svg width="134" height="30" viewBox="0 0 134 30" fill="none" xmlns="http://www.w3.org/2000/svg">
<path d="M50.2342 8.07629C50.2263 7.41657 50.1362 6.76217 49.9695 6.12904C49.808 5.51986 49.575 4.92398 49.2732 4.36535C48.6935 3.28798 47.8622 2.33031 46.8642 1.59877C45.8768 0.872537 44.7305 0.369764 43.5472 0.143649C42.2818 -0.0984265 41.0137 -0.0319221 39.7801 0.345823C37.9191 0.91244 36.794 2.10686 35.7006 3.42631L33.1857 0.582578C32.8627 0.212814 32.3942 0 31.9071 0H22.9354C21.9904 0 21.2227 0.771451 21.2227 1.72113V3.01398C22.3583 4.49836 22.8957 6.35782 22.8216 8.57108C22.766 10.3029 22.0433 11.6223 21.2227 12.6145V14.341C22.2392 15.2375 22.9302 16.2989 23.3167 17.5545C23.5099 18.1796 23.6343 18.858 23.6926 19.5549V2.48194H31.5682L34.5861 5.89495C34.8826 6.23013 35.3115 6.419 35.7589 6.41102C36.2063 6.40304 36.6272 6.19821 36.9131 5.85239C37.0163 5.72736 37.1169 5.60233 37.2175 5.47996C38.3294 4.11795 39.1342 3.13369 40.5028 2.71604C42.1706 2.20795 43.9601 2.52983 45.4135 3.59922C46.888 4.68191 47.7458 6.3259 47.7696 8.10821C47.804 10.6061 46.8801 12.9577 44.9449 15.2987C43.1686 17.4507 40.9714 19.3155 38.8482 21.1165C38.6921 21.2495 38.5359 21.3825 38.3797 21.5155C37.6146 22.1672 36.8522 22.795 36.0448 23.4601L35.788 23.6702C35.7536 23.6995 35.7033 23.6995 35.6689 23.6702C35.4836 23.5186 35.2982 23.3643 35.1129 23.2127C34.054 22.3455 33.0534 21.5261 32.0818 20.6456C31.6318 20.2386 31.15 19.8023 30.6682 19.3608C30.6364 19.3315 30.6046 19.3049 30.5702 19.2783C30.4828 19.2118 30.3875 19.1586 30.2869 19.1187C30.1652 19.0708 30.0354 19.0415 29.9004 19.0336C29.874 19.0336 29.8475 19.0336 29.8184 19.0336C29.6437 19.0336 29.4795 19.0735 29.3313 19.14C29.1804 19.2065 29.0374 19.3076 28.9183 19.4379C28.8018 19.5656 28.7171 19.7119 28.6642 19.8688C28.635 19.954 28.6139 20.0444 28.6033 20.1375C28.598 20.1854 28.5953 20.236 28.5953 20.2838V26.7188H23.6952V21.3452C23.6423 21.981 23.5364 22.6062 23.3749 23.202C22.9646 24.705 22.2366 25.9793 21.228 26.9742V27.4769C21.228 28.4266 21.9957 29.1981 22.9407 29.1981H29.3551C30.3002 29.1981 31.0679 28.4266 31.0679 27.4769V23.0557C31.8885 23.7713 32.733 24.463 33.5537 25.136C33.739 25.2876 33.9217 25.4393 34.107 25.5909C34.5649 25.966 35.1394 26.1735 35.7298 26.1735C36.3201 26.1735 36.8972 25.966 37.3552 25.5882L37.612 25.3781C38.4273 24.705 39.195 24.0719 39.976 23.4095C40.1322 23.2765 40.2884 23.1462 40.4419 23.0132C42.6471 21.1404 44.929 19.2038 46.8457 16.8841C47.9469 15.5487 48.757 14.2319 49.3235 12.8566C49.9536 11.3217 50.2607 9.7123 50.2395 8.07363L50.2342 8.07629Z" fill="#004EBD"/>
<path d="M48.5188 29.2042H42.1044C41.1593 29.2042 40.3916 28.4328 40.3916 27.4831V25.7061C40.3916 25.0198 40.9449 24.4665 41.6252 24.4665C42.3056 24.4665 42.8589 25.0224 42.8589 25.7061V26.7223H47.759V19.3988C47.759 18.7125 48.3123 18.1592 48.9926 18.1592C49.673 18.1592 50.2262 18.7152 50.2262 19.3988V27.4831C50.2262 28.4328 49.4585 29.2042 48.5135 29.2042H48.5188Z" fill="#004EBD"/>
<path d="M51.3061 14.5356C51.3061 11.8435 51.3114 9.15144 51.3008 6.462C51.3008 6.16673 51.3723 5.93529 51.5576 5.70917C55.0652 1.35713 59.6 -0.651304 65.1116 0.186651C70.7795 1.04855 74.7186 4.37377 76.6617 9.77924C79.7564 18.3929 74.1336 27.4375 65.4558 28.9006C59.8065 29.8529 55.1499 27.8764 51.5443 23.4073C51.3696 23.1918 51.3034 22.9684 51.3034 22.6891C51.3114 19.9704 51.3087 17.2517 51.3087 14.5303L51.3061 14.5356ZM63.0785 21.8272C63.4439 21.8431 63.8648 21.7899 64.283 21.6995C68.839 20.7152 71.2613 15.5412 69.154 11.2929C67.6371 8.23368 64.1904 6.66418 61.1142 7.63248C57.5748 8.7471 55.4305 12.5884 56.3121 16.2408C57.0983 19.5048 59.8886 21.8298 63.0812 21.8272H63.0785Z" fill="#004EBD"/>
<path d="M99.1499 19.4112C100.376 20.1428 101.612 20.7652 102.922 21.2255C104.529 21.7921 106.17 22.0341 107.865 21.7389C108.328 21.6591 108.773 21.5154 109.157 21.2334C110.104 20.5338 109.991 19.35 108.926 18.8739C108.074 18.4935 107.147 18.4323 106.247 18.2594C104.108 17.8444 101.937 17.5651 99.9017 16.7085C99.4411 16.5143 99.2849 16.2935 99.2876 15.7827C99.3114 11.1168 99.3087 6.45084 99.2902 1.78489C99.2902 1.37789 99.4279 1.21296 99.7826 1.08261C102.012 0.249973 104.32 0.0371588 106.671 0.154207C110.057 0.321798 113.048 1.55346 115.751 3.56189C116.566 4.16841 116.635 4.57276 116.061 5.39475C115.161 6.68228 114.263 7.9698 113.36 9.25733C112.916 9.89045 112.474 9.98355 111.817 9.57389C110.11 8.50716 108.299 7.70378 106.284 7.45905C105.342 7.34466 104.394 7.34732 103.452 7.49895C103.123 7.55215 102.814 7.66122 102.538 7.85807C101.869 8.33957 101.858 9.1456 102.536 9.61379C103.129 10.0235 103.809 10.2522 104.487 10.4783C105.834 10.9306 107.248 11.0689 108.625 11.3908C110.448 11.8164 112.243 12.3245 113.803 13.4258C116.032 15.0006 117.3 17.1048 117.366 19.8927C117.419 22.0687 117.011 24.0958 115.595 25.8169C114.324 27.3625 112.64 28.2377 110.732 28.6473C105.694 29.7274 100.91 29.0996 96.4603 26.3809C96.1558 26.1947 96.1082 26.1016 96.3676 25.7956C97.8157 24.0825 98.6575 22.082 99.0466 19.8794C99.0599 19.7969 99.0784 19.7171 99.0969 19.6373C99.1075 19.5841 99.1234 19.5309 99.1499 19.4219V19.4112Z" fill="#004EBD"/>
<path d="M113.967 28.5577C114.552 28.1799 115.137 27.8048 115.648 27.326C117.409 25.6767 118.224 23.5885 118.412 21.2236C118.539 19.6221 118.391 18.0393 117.758 16.5523C116.808 14.3257 115.143 12.7722 113.004 11.7108C112.757 11.5884 112.657 11.4554 112.67 11.1761C112.681 10.942 112.744 10.8329 112.985 10.7904C113.485 10.7026 113.859 10.4046 114.145 9.99496C115.14 8.57443 116.138 7.15389 117.123 5.72538C117.756 4.80496 117.557 3.60522 116.673 2.92421C115.648 2.13148 114.566 1.4292 113.406 0.849278C113.313 0.801395 113.192 0.785434 113.133 0.655086C113.295 0.495475 113.501 0.511436 113.7 0.511436C120.117 0.511436 126.531 0.508776 132.948 0.511436C133.668 0.511436 133.989 0.854599 133.991 1.59413C133.991 3.22215 133.991 4.85284 133.991 6.48087C133.991 7.2204 133.642 7.57154 132.909 7.57154C129.102 7.57154 125.298 7.57154 121.491 7.57154C120.53 7.57154 120.252 7.85618 120.252 8.83778C120.252 9.17031 120.252 9.50017 120.252 9.83269C120.252 10.7159 120.57 11.0377 121.438 11.0404C124.694 11.0404 127.95 11.0404 131.206 11.0404C131.331 11.0404 131.455 11.0377 131.577 11.0431C132.075 11.0697 132.44 11.4075 132.445 11.9103C132.456 13.7059 132.459 15.4989 132.445 17.2945C132.44 17.8611 132.051 18.1777 131.423 18.1777C128.345 18.1777 125.269 18.1777 122.19 18.1777C121.875 18.1777 121.557 18.1723 121.242 18.1777C120.636 18.1883 120.273 18.5474 120.257 19.1593C120.247 19.5742 120.252 19.9866 120.257 20.4016C120.262 21.1384 120.609 21.4843 121.353 21.4843C125.118 21.4843 128.882 21.4843 132.646 21.4843C132.771 21.4843 132.893 21.4843 133.017 21.4843C133.626 21.4976 133.991 21.8514 133.994 22.4659C134.002 24.1923 134.002 25.9188 133.994 27.6426C133.991 28.2571 133.629 28.6162 133.012 28.6162C126.732 28.6188 120.453 28.6162 114.176 28.6162C114.116 28.6162 114.041 28.6428 113.975 28.547L113.967 28.5577Z" fill="#004EBD"/>
<path d="M98.2293 9.77143C98.2293 12.2427 98.2373 14.714 98.2293 17.1853C98.2161 19.9493 97.5516 22.519 95.8415 24.7323C94.0969 26.9934 91.7488 28.2863 88.9797 28.8103C85.9804 29.3796 83.0445 29.1694 80.2384 27.8792C78.425 27.0466 76.9531 25.7937 75.8227 24.1364C75.6348 23.8597 75.6163 23.6682 75.8174 23.3756C79.7434 17.6775 79.4389 10.1146 75.0789 4.7304C74.7929 4.3766 74.4991 4.02811 74.1682 3.71953C73.9008 3.46948 73.8029 3.20346 73.8267 2.847C73.8532 2.42137 73.8267 1.99042 73.8346 1.56213C73.8452 0.902408 74.2026 0.543284 74.8618 0.540624C76.6619 0.537964 78.4621 0.540624 80.2622 0.540624C81.0961 0.540624 81.4111 0.854525 81.4111 1.6845C81.4111 6.79204 81.4111 11.8996 81.4111 17.0098C81.4111 18.018 81.5647 18.9863 82.0836 19.8721C83.0419 21.5028 85.0009 22.3541 86.9493 21.9763C88.9056 21.5959 90.2531 20.21 90.5681 18.276C90.6449 17.8105 90.6581 17.3423 90.6581 16.8741C90.6581 11.8357 90.6581 6.7947 90.6581 1.75632C90.6581 1.4637 90.6581 1.17375 90.8408 0.923689C91.0446 0.647031 91.3226 0.537964 91.6641 0.537964C93.5198 0.540624 95.3729 0.537964 97.2286 0.540624C97.8931 0.540624 98.2346 0.891767 98.2346 1.57277C98.2346 4.30743 98.2346 7.03943 98.2346 9.77409L98.2293 9.77143Z" fill="#004EBD"/>
<path d="M22.3397 17.858C22.0961 17.0679 21.7123 16.3896 21.2225 15.8043C20.6587 15.134 19.9518 14.5833 19.1471 14.1204C18.6653 13.8438 18.6573 13.6363 19.0782 13.2798C19.1629 13.208 19.253 13.1468 19.3377 13.075C20.1133 12.3913 20.7804 11.6518 21.2252 10.7872C21.5667 10.1222 21.7758 9.38266 21.8049 8.53939C21.8473 7.25186 21.6673 6.07873 21.2252 5.03594C20.709 3.81758 19.838 2.78011 18.5488 1.95545C17.0001 0.963209 15.2476 0.574824 13.4501 0.548222C9.38654 0.489698 5.32032 0.5163 1.2541 0.50832C0.27725 0.505659 0.00458007 0.784978 0.00458007 1.76392C0.00458007 6.02818 0.00458007 10.2924 0.00458007 14.5567V26.3971C0.00458007 26.8254 -0.00865633 27.2537 0.00987463 27.6793C0.0363474 28.2805 0.391083 28.621 0.984074 28.621C5.28326 28.621 9.58244 28.645 13.879 28.5971C15.5891 28.5785 17.2569 28.2433 18.8109 27.4559C19.8406 26.9345 20.6295 26.2216 21.2199 25.4076C22.9088 23.0772 22.9671 19.8957 22.337 17.8553L22.3397 17.858ZM10.6731 21.5663C9.98747 21.5663 9.29918 21.5742 8.61353 21.5663C7.95436 21.5583 7.59168 21.1965 7.5811 20.5421C7.57315 19.8797 7.57315 19.2173 7.5811 18.5549C7.58904 17.8766 7.95436 17.5228 8.64001 17.5201C9.916 17.5175 11.1946 17.5148 12.4706 17.5201C13.511 17.5255 14.3105 18.132 14.6176 19.1269C14.9697 20.2681 14.0246 21.521 12.7698 21.5583C12.0709 21.5796 11.3694 21.5609 10.6705 21.5609L10.6731 21.5663ZM12.1424 11.1703C10.922 11.2075 9.69892 11.1916 8.47852 11.1756C7.95966 11.1676 7.60227 10.7979 7.58639 10.2791C7.56521 9.68592 7.56786 9.0927 7.58639 8.49949C7.60227 7.93819 7.97554 7.58438 8.53941 7.57374C9.14299 7.5631 9.74657 7.57374 10.3502 7.57374C10.914 7.57374 11.4752 7.56842 12.0391 7.57374C12.9074 7.58172 13.7122 8.3585 13.7493 9.21507C13.7916 10.2339 13.0795 11.141 12.1477 11.1703H12.1424Z" fill="#004EBD"/>
</svg>
