<svg width="549" height="327" viewBox="0 0 549 327" fill="none" xmlns="http://www.w3.org/2000/svg">
<path d="M27.3208 71.88C22.7342 71.88 18.7075 70.92 15.2408 69C11.8275 67.0267 9.16082 64.3067 7.24082 60.84C5.37415 57.3733 4.44082 53.4 4.44082 48.92H12.1208C12.1208 53.7733 13.4808 57.6933 16.2008 60.68C18.9742 63.6667 22.6808 65.16 27.3208 65.16C31.0008 65.16 34.0675 64.2 36.5208 62.28C38.9742 60.36 40.2008 57.7467 40.2008 54.44C40.2008 52.0933 39.6142 50.1733 38.4408 48.68C37.2675 47.1867 35.7475 45.9867 33.8808 45.08C32.0142 44.1733 29.2408 43.0267 25.5608 41.64C21.0808 39.9333 17.5075 38.36 14.8408 36.92C12.1742 35.4267 10.0675 33.56 8.52082 31.32C6.97415 29.08 6.20082 26.28 6.20082 22.92C6.20082 19.4533 7.05415 16.4667 8.76082 13.96C10.5208 11.4 12.8675 9.45333 15.8008 8.12C18.7342 6.78666 21.9608 6.12 25.4808 6.12C29.5342 6.12 33.0542 7 36.0408 8.76C39.0808 10.4667 41.4008 12.8667 43.0008 15.96C44.6008 19.0533 45.4008 22.5733 45.4008 26.52H37.9608C37.9608 22.4667 36.7875 19.16 34.4408 16.6C32.1475 14.04 29.1075 12.76 25.3208 12.76C22.0142 12.76 19.2675 13.6933 17.0808 15.56C14.9475 17.4267 13.8808 19.8533 13.8808 22.84C13.8808 25.0267 14.4675 26.84 15.6408 28.28C16.8142 29.72 18.3875 30.9467 20.3608 31.96C22.3875 32.9733 25.2142 34.12 28.8408 35.4C33.1608 36.9467 36.6275 38.4667 39.2408 39.96C41.9075 41.4 43.9875 43.2667 45.4808 45.56C47.0275 47.8 47.8008 50.6267 47.8008 54.04C47.8008 57.6667 46.8942 60.84 45.0808 63.56C43.3208 66.2267 40.8942 68.28 37.8008 69.72C34.7075 71.16 31.2142 71.88 27.3208 71.88ZM80.5077 71.88C75.5477 71.88 71.0944 70.76 67.1477 68.52C63.2544 66.2267 60.1877 63.0267 57.9477 58.92C55.7077 54.8133 54.5877 50.1467 54.5877 44.92C54.5877 39.6933 55.7077 35.0533 57.9477 31C60.1877 26.9467 63.2544 23.8 67.1477 21.56C71.0944 19.2667 75.5477 18.12 80.5077 18.12C84.9877 18.12 88.9877 19.0533 92.5077 20.92C96.0277 22.7333 98.8277 25.2933 100.908 28.6V19H108.268V71H100.908V61.32C98.7744 64.6267 95.9477 67.2133 92.4277 69.08C88.961 70.9467 84.9877 71.88 80.5077 71.88ZM62.2677 44.92C62.2677 48.8667 63.0944 52.3867 64.7477 55.48C66.401 58.52 68.6944 60.8933 71.6277 62.6C74.561 64.3067 77.8944 65.16 81.6277 65.16C85.4144 65.16 88.7744 64.3067 91.7077 62.6C94.641 60.8933 96.9344 58.52 98.5877 55.48C100.241 52.3867 101.068 48.8667 101.068 44.92C101.068 40.9733 100.241 37.48 98.5877 34.44C96.9344 31.4 94.641 29.0267 91.7077 27.32C88.7744 25.6133 85.4144 24.76 81.6277 24.76C77.8944 24.76 74.561 25.6133 71.6277 27.32C68.6944 29.0267 66.401 31.4 64.7477 34.44C63.0944 37.48 62.2677 40.9733 62.2677 44.92ZM166.509 71H159.069V61.88C157.789 64.8133 155.602 67.2133 152.509 69.08C149.469 70.9467 145.869 71.88 141.709 71.88C137.496 71.88 133.682 70.92 130.269 69C126.909 67.0267 124.269 64.3067 122.349 60.84C120.429 57.32 119.469 53.2933 119.469 48.76V19H126.829V48.92C126.829 52.12 127.496 54.9733 128.829 57.48C130.216 59.9333 132.136 61.8533 134.589 63.24C137.042 64.6267 139.842 65.32 142.989 65.32C146.136 65.32 148.909 64.6267 151.309 63.24C153.762 61.8533 155.656 59.9333 156.989 57.48C158.376 54.9733 159.069 52.12 159.069 48.92V19H166.509V71ZM139.389 11.72L142.589 0.439998L148.989 2.51999L144.829 13.48L139.389 11.72ZM201.992 71.88C197.032 71.88 192.579 70.76 188.632 68.52C184.739 66.2267 181.672 63.0533 179.432 59C177.192 54.8933 176.072 50.2267 176.072 45C176.072 39.7733 177.192 35.1333 179.432 31.08C181.672 26.9733 184.739 23.8 188.632 21.56C192.579 19.2667 197.032 18.12 201.992 18.12C206.472 18.12 210.472 19.0533 213.992 20.92C217.512 22.7333 220.312 25.32 222.392 28.68V7H229.752V71H222.392V61.32C220.259 64.6267 217.432 67.2133 213.912 69.08C210.445 70.9467 206.472 71.88 201.992 71.88ZM183.752 45C183.752 48.9467 184.579 52.4667 186.232 55.56C187.885 58.6 190.179 60.9733 193.112 62.68C196.045 64.3333 199.379 65.16 203.112 65.16C206.899 65.16 210.259 64.3333 213.192 62.68C216.125 60.9733 218.419 58.6 220.072 55.56C221.725 52.4667 222.552 48.9467 222.552 45C222.552 41.0533 221.725 37.56 220.072 34.52C218.419 31.4267 216.125 29.0267 213.192 27.32C210.259 25.6133 206.899 24.76 203.112 24.76C199.379 24.76 196.045 25.6133 193.112 27.32C190.179 29.0267 187.885 31.4267 186.232 34.52C184.579 37.56 183.752 41.0533 183.752 45ZM266.473 71.88C261.193 71.88 256.5 70.76 252.393 68.52C248.287 66.2267 245.087 63.0533 242.793 59C240.5 54.9467 239.353 50.3067 239.353 45.08C239.353 39.8 240.5 35.1333 242.793 31.08C245.14 26.9733 248.367 23.8 252.473 21.56C256.58 19.2667 261.273 18.12 266.553 18.12C271.94 18.12 276.713 19.3467 280.873 21.8C285.033 24.2 288.207 27.64 290.393 32.12C292.633 36.6 293.593 41.7733 293.273 47.64H247.193C247.407 51.1067 248.393 54.1733 250.153 56.84C251.913 59.4533 254.207 61.5067 257.033 63C259.86 64.44 263.007 65.16 266.473 65.16C270.953 65.16 274.793 63.9867 277.993 61.64C281.247 59.24 283.487 55.9867 284.713 51.88H292.633C291.14 58.0133 288.073 62.8933 283.433 66.52C278.847 70.0933 273.193 71.88 266.473 71.88ZM285.273 41.32C284.473 35.9867 282.367 31.9067 278.953 29.08C275.593 26.2 271.487 24.76 266.633 24.76C261.513 24.76 257.22 26.28 253.753 29.32C250.287 32.36 248.207 36.3867 247.513 41.4L285.273 41.32ZM7.24082 95H17.8008L44.1208 149.8L70.5208 95H81.0808V159H73.6408V105.64L47.8008 159H40.4408L14.6808 105.8V159H7.24082V95ZM116.601 159.88C111.641 159.88 107.188 158.76 103.241 156.52C99.3481 154.227 96.2814 151.027 94.0414 146.92C91.8014 142.813 90.6814 138.147 90.6814 132.92C90.6814 127.693 91.8014 123.053 94.0414 119C96.2814 114.947 99.3481 111.8 103.241 109.56C107.188 107.267 111.641 106.12 116.601 106.12C121.081 106.12 125.081 107.053 128.601 108.92C132.121 110.733 134.921 113.293 137.001 116.6V107H144.361V159H137.001V149.32C134.868 152.627 132.041 155.213 128.521 157.08C125.055 158.947 121.081 159.88 116.601 159.88ZM98.3614 132.92C98.3614 136.867 99.1881 140.387 100.841 143.48C102.495 146.52 104.788 148.893 107.721 150.6C110.655 152.307 113.988 153.16 117.721 153.16C121.508 153.16 124.868 152.307 127.801 150.6C130.735 148.893 133.028 146.52 134.681 143.48C136.335 140.387 137.161 136.867 137.161 132.92C137.161 128.973 136.335 125.48 134.681 122.44C133.028 119.4 130.735 117.027 127.801 115.32C124.868 113.613 121.508 112.76 117.721 112.76C113.988 112.76 110.655 113.613 107.721 115.32C104.788 117.027 102.495 119.4 100.841 122.44C99.1881 125.48 98.3614 128.973 98.3614 132.92ZM157.163 107H164.603V116.28C165.989 113.56 168.123 111.213 171.003 109.24C173.883 107.267 177.243 106.227 181.083 106.12V113.48C177.883 113.48 175.029 114.2 172.523 115.64C170.016 117.027 168.069 119 166.683 121.56C165.296 124.067 164.603 126.973 164.603 130.28V159H157.163V107ZM189.116 95H196.556V128.76L224.076 107H234.316L203.276 131.64L235.916 159H225.596L196.556 134.92V159H189.116V95ZM266.239 159.88C260.959 159.88 256.266 158.76 252.159 156.52C248.052 154.227 244.852 151.053 242.559 147C240.266 142.947 239.119 138.307 239.119 133.08C239.119 127.8 240.266 123.133 242.559 119.08C244.906 114.973 248.132 111.8 252.239 109.56C256.346 107.267 261.039 106.12 266.319 106.12C271.706 106.12 276.479 107.347 280.639 109.8C284.799 112.2 287.972 115.64 290.159 120.12C292.399 124.6 293.359 129.773 293.039 135.64H246.959C247.172 139.107 248.159 142.173 249.919 144.84C251.679 147.453 253.972 149.507 256.799 151C259.626 152.44 262.772 153.16 266.239 153.16C270.719 153.16 274.559 151.987 277.759 149.64C281.012 147.24 283.252 143.987 284.479 139.88H292.399C290.906 146.013 287.839 150.893 283.199 154.52C278.612 158.093 272.959 159.88 266.239 159.88ZM285.039 129.32C284.239 123.987 282.132 119.907 278.719 117.08C275.359 114.2 271.252 112.76 266.399 112.76C261.279 112.76 256.986 114.28 253.519 117.32C250.052 120.36 247.972 124.387 247.279 129.4L285.039 129.32ZM308.868 113.64H297.988V107H308.868V95H316.308V107H327.188V113.64H316.308V159H308.868V113.64ZM335.21 110.2H342.65V159H335.21V110.2ZM335.21 95H342.65V101.8H335.21V95ZM355.444 107H362.884V116.12C364.164 113.187 366.324 110.787 369.364 108.92C372.457 107.053 376.084 106.12 380.244 106.12C384.457 106.12 388.244 107.107 391.604 109.08C395.017 111 397.684 113.72 399.604 117.24C401.524 120.707 402.484 124.707 402.484 129.24V159H395.124V129.08C395.124 125.88 394.431 123.053 393.044 120.6C391.711 118.093 389.817 116.147 387.364 114.76C384.911 113.373 382.111 112.68 378.964 112.68C375.817 112.68 373.017 113.373 370.564 114.76C368.164 116.147 366.271 118.093 364.884 120.6C363.551 123.053 362.884 125.88 362.884 129.08V159H355.444V107ZM415.327 168.36H440.607C443.754 168.36 446.554 167.667 449.007 166.28C451.46 164.893 453.354 162.947 454.687 160.44C456.074 157.933 456.767 155.107 456.767 151.96V148.68C454.634 152.04 451.78 154.68 448.207 156.6C444.634 158.467 440.607 159.4 436.127 159.4C431.167 159.4 426.74 158.28 422.847 156.04C418.954 153.747 415.914 150.573 413.727 146.52C411.54 142.467 410.447 137.853 410.447 132.68C410.447 127.507 411.54 122.92 413.727 118.92C415.914 114.867 418.954 111.72 422.847 109.48C426.74 107.24 431.14 106.12 436.047 106.12C440.58 106.12 444.634 107.053 448.207 108.92C451.78 110.787 454.634 113.4 456.767 116.76V107H464.127V151.56C464.127 156.093 463.114 160.12 461.087 163.64C459.114 167.213 456.34 169.987 452.767 171.96C449.247 173.987 445.194 175 440.607 175H415.327V168.36ZM418.127 132.68C418.127 136.573 418.954 140.04 420.607 143.08C422.26 146.067 424.554 148.413 427.487 150.12C430.42 151.827 433.754 152.68 437.487 152.68C441.274 152.68 444.634 151.827 447.567 150.12C450.5 148.413 452.794 146.067 454.447 143.08C456.1 140.04 456.927 136.573 456.927 132.68C456.927 128.84 456.1 125.4 454.447 122.36C452.794 119.32 450.5 116.973 447.567 115.32C444.634 113.613 441.274 112.76 437.487 112.76C433.754 112.76 430.42 113.613 427.487 115.32C424.554 117.027 422.26 119.4 420.607 122.44C418.954 125.427 418.127 128.84 418.127 132.68Z" fill="#004EBF"/>
<path d="M341.886 47.48H323.006V40.84H341.886V21.64H349.246V40.84H368.126V47.48H349.246V66.76H341.886V47.48ZM496.913 120.84H542.033V127.48H496.913V120.84ZM496.913 138.44H542.033V145.08H496.913V138.44ZM29.0808 247.88C24.1742 247.88 19.8275 246.947 16.0408 245.08C12.2542 243.213 9.29415 240.627 7.16082 237.32C5.08082 234.013 4.04082 230.227 4.04082 225.96H20.0408C20.0408 228.36 20.7875 230.333 22.2808 231.88C23.8275 233.427 25.9875 234.2 28.7608 234.2C30.8942 234.2 32.6008 233.747 33.8808 232.84C35.1608 231.88 35.8008 230.547 35.8008 228.84C35.8008 227.027 35.0542 225.587 33.5608 224.52C32.0675 223.4 29.6142 222.093 26.2008 220.6L24.6808 219.88C20.4675 218.067 17.0542 216.387 14.4408 214.84C11.8275 213.24 9.66749 211.267 7.96082 208.92C6.25415 206.52 5.40082 203.587 5.40082 200.12C5.40082 196.44 6.36082 193.24 8.28082 190.52C10.2542 187.8 12.9208 185.72 16.2808 184.28C19.6408 182.84 23.4008 182.12 27.5608 182.12C31.8808 182.12 35.6675 183 38.9208 184.76C42.2275 186.467 44.7608 188.893 46.5208 192.04C48.3342 195.133 49.2408 198.733 49.2408 202.84H34.0408C34.0408 200.76 33.4542 199.133 32.2808 197.96C31.1075 196.733 29.5342 196.12 27.5608 196.12C25.8008 196.12 24.3342 196.6 23.1608 197.56C21.9875 198.467 21.4008 199.613 21.4008 201C21.4008 202.013 21.7475 202.867 22.4408 203.56C23.1342 204.253 24.0942 204.893 25.3208 205.48C26.5475 206.067 28.5742 206.92 31.4008 208.04C31.6675 208.093 32.6542 208.467 34.3608 209.16C38.0408 210.6 41.1342 212.093 43.6408 213.64C46.1475 215.187 48.1742 217.16 49.7208 219.56C51.2675 221.96 52.0408 224.92 52.0408 228.44C52.0408 232.44 51.0542 235.907 49.0808 238.84C47.1608 241.773 44.4675 244.013 41.0008 245.56C37.5342 247.107 33.5608 247.88 29.0808 247.88ZM88.1758 247.88C82.8958 247.88 78.1758 246.733 74.0158 244.44C69.8558 242.093 66.6025 238.84 64.2558 234.68C61.9625 230.52 60.8158 225.773 60.8158 220.44V183H76.4158V221.72C76.4158 225.187 77.5092 228.013 79.6958 230.2C81.8825 232.387 84.7092 233.48 88.1758 233.48C91.6425 233.48 94.4692 232.387 96.6558 230.2C98.8958 228.013 100.016 225.187 100.016 221.72V183H115.536V220.44C115.536 225.773 114.362 230.52 112.016 234.68C109.722 238.84 106.496 242.093 102.336 244.44C98.1758 246.733 93.4558 247.88 88.1758 247.88ZM156.833 247.88C150.593 247.88 144.993 246.493 140.033 243.72C135.127 240.947 131.287 237.08 128.513 232.12C125.74 227.107 124.353 221.373 124.353 214.92C124.353 208.52 125.74 202.84 128.513 197.88C131.287 192.867 135.1 189 139.953 186.28C144.86 183.507 150.433 182.12 156.673 182.12C162.273 182.12 167.367 183.293 171.953 185.64C176.54 187.933 180.327 191.107 183.313 195.16C186.3 199.213 188.3 203.827 189.313 209H173.153C172.193 205.533 170.22 202.653 167.233 200.36C164.3 198.013 160.887 196.84 156.993 196.84C153.847 196.84 150.993 197.613 148.433 199.16C145.927 200.653 143.953 202.787 142.513 205.56C141.073 208.28 140.353 211.4 140.353 214.92C140.353 218.44 141.073 221.56 142.513 224.28C144.007 226.947 146.033 229.027 148.593 230.52C151.153 232.013 154.007 232.76 157.153 232.76C161.153 232.76 164.62 231.667 167.553 229.48C170.487 227.293 172.433 224.413 173.393 220.84H189.473C188.62 226.12 186.7 230.813 183.713 234.92C180.78 239.027 176.993 242.227 172.353 244.52C167.713 246.76 162.54 247.88 156.833 247.88ZM199.038 183H246.478V196.6H214.638V207.32H241.678V221H214.638V233.32H246.478V247H199.038V183ZM279.94 247.88C275.034 247.88 270.687 246.947 266.9 245.08C263.114 243.213 260.154 240.627 258.02 237.32C255.94 234.013 254.9 230.227 254.9 225.96H270.9C270.9 228.36 271.647 230.333 273.14 231.88C274.687 233.427 276.847 234.2 279.62 234.2C281.754 234.2 283.46 233.747 284.74 232.84C286.02 231.88 286.66 230.547 286.66 228.84C286.66 227.027 285.914 225.587 284.42 224.52C282.927 223.4 280.474 222.093 277.06 220.6L275.54 219.88C271.327 218.067 267.914 216.387 265.3 214.84C262.687 213.24 260.527 211.267 258.82 208.92C257.114 206.52 256.26 203.587 256.26 200.12C256.26 196.44 257.22 193.24 259.14 190.52C261.114 187.8 263.78 185.72 267.14 184.28C270.5 182.84 274.26 182.12 278.42 182.12C282.74 182.12 286.527 183 289.78 184.76C293.087 186.467 295.62 188.893 297.38 192.04C299.194 195.133 300.1 198.733 300.1 202.84H284.9C284.9 200.76 284.314 199.133 283.14 197.96C281.967 196.733 280.394 196.12 278.42 196.12C276.66 196.12 275.194 196.6 274.02 197.56C272.847 198.467 272.26 199.613 272.26 201C272.26 202.013 272.607 202.867 273.3 203.56C273.994 204.253 274.954 204.893 276.18 205.48C277.407 206.067 279.434 206.92 282.26 208.04C282.527 208.093 283.514 208.467 285.22 209.16C288.9 210.6 291.994 212.093 294.5 213.64C297.007 215.187 299.034 217.16 300.58 219.56C302.127 221.96 302.9 224.92 302.9 228.44C302.9 232.44 301.914 235.907 299.94 238.84C298.02 241.773 295.327 244.013 291.86 245.56C288.394 247.107 284.42 247.88 279.94 247.88ZM334.315 247.88C329.409 247.88 325.062 246.947 321.275 245.08C317.489 243.213 314.529 240.627 312.395 237.32C310.315 234.013 309.275 230.227 309.275 225.96H325.275C325.275 228.36 326.022 230.333 327.515 231.88C329.062 233.427 331.222 234.2 333.995 234.2C336.129 234.2 337.835 233.747 339.115 232.84C340.395 231.88 341.035 230.547 341.035 228.84C341.035 227.027 340.289 225.587 338.795 224.52C337.302 223.4 334.849 222.093 331.435 220.6L329.915 219.88C325.702 218.067 322.289 216.387 319.675 214.84C317.062 213.24 314.902 211.267 313.195 208.92C311.489 206.52 310.635 203.587 310.635 200.12C310.635 196.44 311.595 193.24 313.515 190.52C315.489 187.8 318.155 185.72 321.515 184.28C324.875 182.84 328.635 182.12 332.795 182.12C337.115 182.12 340.902 183 344.155 184.76C347.462 186.467 349.995 188.893 351.755 192.04C353.569 195.133 354.475 198.733 354.475 202.84H339.275C339.275 200.76 338.689 199.133 337.515 197.96C336.342 196.733 334.769 196.12 332.795 196.12C331.035 196.12 329.569 196.6 328.395 197.56C327.222 198.467 326.635 199.613 326.635 201C326.635 202.013 326.982 202.867 327.675 203.56C328.369 204.253 329.329 204.893 330.555 205.48C331.782 206.067 333.809 206.92 336.635 208.04C336.902 208.093 337.889 208.467 339.595 209.16C343.275 210.6 346.369 212.093 348.875 213.64C351.382 215.187 353.409 217.16 354.955 219.56C356.502 221.96 357.275 224.92 357.275 228.44C357.275 232.44 356.289 235.907 354.315 238.84C352.395 241.773 349.702 244.013 346.235 245.56C342.769 247.107 338.795 247.88 334.315 247.88ZM396.93 247.88C390.477 247.88 384.717 246.493 379.65 243.72C374.637 240.947 370.717 237.08 367.89 232.12C365.064 227.107 363.65 221.373 363.65 214.92C363.65 208.52 365.064 202.84 367.89 197.88C370.717 192.92 374.637 189.053 379.65 186.28C384.717 183.507 390.477 182.12 396.93 182.12C403.384 182.12 409.117 183.507 414.13 186.28C419.197 189.053 423.144 192.92 425.97 197.88C428.797 202.84 430.21 208.52 430.21 214.92C430.21 221.373 428.797 227.107 425.97 232.12C423.144 237.08 419.197 240.947 414.13 243.72C409.117 246.493 403.384 247.88 396.93 247.88ZM379.65 214.92C379.65 218.493 380.37 221.667 381.81 224.44C383.304 227.213 385.357 229.373 387.97 230.92C390.584 232.413 393.57 233.16 396.93 233.16C400.29 233.16 403.277 232.413 405.89 230.92C408.557 229.373 410.61 227.213 412.05 224.44C413.544 221.667 414.29 218.493 414.29 214.92C414.29 211.4 413.544 208.28 412.05 205.56C410.61 202.787 408.557 200.653 405.89 199.16C403.277 197.613 400.29 196.84 396.93 196.84C393.57 196.84 390.584 197.613 387.97 199.16C385.357 200.653 383.304 202.787 381.81 205.56C380.37 208.28 379.65 211.4 379.65 214.92ZM440.539 183H456.139V221.16H440.539V183ZM438.699 237.8C438.699 234.973 439.632 232.653 441.499 230.84C443.366 228.973 445.712 228.04 448.539 228.04C451.366 228.04 453.686 228.973 455.499 230.84C457.366 232.653 458.299 234.973 458.299 237.8C458.299 240.627 457.366 242.973 455.499 244.84C453.686 246.707 451.366 247.64 448.539 247.64C445.712 247.64 443.366 246.707 441.499 244.84C439.632 242.973 438.699 240.627 438.699 237.8Z" fill="#00295B"/>
<path d="M18.9927 265.066C32.1695 246.793 51.9548 266.729 36.2517 282.487C35.3712 283.307 34.4307 284.129 33.4886 284.885C38.5128 284.015 41.0358 286.397 39.7435 292.335C36.6602 305.883 13.2648 309.589 2.26411 309.3C-0.619053 309.315 -0.565698 304.274 2.3208 304.392C35.7648 306.107 43.6888 282.013 26.2198 289.664C25.0342 290.294 23.7886 290.926 22.6013 291.49C22.4829 291.559 22.3061 291.697 22.1277 291.768L22.126 291.702C21.9493 291.839 21.7708 291.911 21.5924 291.982C18.4975 293.13 16.8016 287.806 19.8949 286.592C26.6634 283.418 36.2383 279.569 37.3322 270.52C37.8708 263.277 30.6037 260.961 25.9546 264.805C23.4183 266.666 21.5741 269.768 20.0883 272.794C16.1546 281.193 14.1069 290.534 12.2976 299.802C11.669 303.467 6.47127 302.22 7.28002 298.55C9.81465 287.074 12.4493 274.799 18.9927 265.066Z" fill="#004EBD"/>
<path d="M79.7294 283.125C80.9284 280.638 84.4619 282.594 83.3246 285.146C79.8578 295.389 68.9389 298.347 69.6892 285.196C66.4942 287.143 64.8617 291.499 63.2059 294.927C61.6601 297.954 57.3328 295.489 58.5768 292.404C59.7508 288.923 61.48 283.636 60.6129 280.212C55.8971 283.793 51.5999 292.069 48.9952 298.376C48.5016 300.246 46.2988 301.037 45.0765 300.209C42.1383 298.037 45.8102 291.171 46.1504 287.978C46.9141 284.906 47.6812 281.967 48.5066 278.96C49.4371 275.353 54.4663 277.069 53.4742 280.611C53.0856 281.882 52.7571 283.151 52.4286 284.42C53.6976 282.329 55.025 280.17 56.0755 278.947C60.1426 273.462 65.0085 275.845 65.0535 282.409C69.5208 278.504 75.2688 277.746 74.1315 287.459C74.1549 288.387 73.9865 288.856 74.5951 289.17C77.0547 289.035 78.4604 285.216 79.7294 283.125Z" fill="#004EBD"/>
<path d="M104.578 281.235C107.138 280.301 108.57 284.703 105.952 285.705C101.84 287.014 97.291 287.672 93.1121 286.33C94.5179 292.06 91.9115 298.3 84.9012 299.027C80.3572 299.884 75.0111 297.514 76.1817 291.513C77.0955 287.243 79.8353 283.917 82.9535 281.31C82.8201 280.783 82.8068 280.253 82.9719 279.652C83.4705 277.98 85.2564 277.333 86.6555 278.024C86.7172 278.088 86.7772 278.086 86.8389 278.151L86.8989 278.149C87.751 278.59 88.4847 279.1 89.1601 279.677C93.9175 282.528 99.4071 283.435 104.578 281.235ZM87.9278 292.775C90.0355 290.594 89.2251 287.036 87.3108 284.968C87.2508 284.969 87.1924 285.037 87.134 285.105C84.6478 286.568 82.1815 288.825 80.9925 291.71C80.3155 293.453 80.509 293.978 82.2565 294.194C84.1242 294.407 86.6388 294.071 87.9278 292.775Z" fill="#004EBD"/>
<path d="M140.385 281.425C142.228 278.256 146.035 281.531 143.762 284.314C140.052 289.656 134.109 294.597 127.64 292.988C124.375 292.151 122.506 289.485 121.584 286.262C121.242 287.001 120.898 287.673 120.555 288.346C118.255 292.456 115.074 297.319 110.211 297.455C107.57 297.53 105.109 295.211 104.735 292.304C104.028 288.08 105.247 284.001 105.991 280.134C106.854 276.264 112.062 277.908 110.957 281.719C110.353 283.99 107.423 291.698 109.738 292.96C111.857 293.63 113.675 291.855 115.194 290.154C117.12 287.912 118.672 285.15 119.803 282.333C120.427 280.857 120.93 279.384 121.312 277.848C121.369 277.714 121.425 277.579 121.484 277.512C122.359 274.105 127.195 275.296 126.446 278.964C123.787 292.632 135.466 288.857 140.385 281.425Z" fill="#004EBD"/>
<path d="M157.629 272.255C160.114 273.113 161.515 276.257 161.341 278.914C161.194 282.632 156.207 282.573 156.173 278.86C156.147 277.8 155.903 277.674 155.365 277.755C152.428 278.037 148.94 280.256 147.082 282.828C147.264 282.89 147.386 282.952 147.566 282.947C150.289 283.733 153.797 284.696 155.9 287.09C158.623 290.263 157.844 295.126 155.952 298.693C152.62 304.755 146.875 308.032 141.234 310.644C130.3 315.393 118.632 317.245 107.068 318.432C105.871 318.598 104.764 317.568 104.669 316.178C104.515 314.856 105.446 313.636 106.705 313.535C120.847 312.144 137.314 310.024 148.905 300.35C151.371 298.092 155.278 293.407 152.613 290.166C150.651 288.564 147.002 289.196 144.633 288.136C142.028 287.28 140.562 283.939 141.694 281.189C143.902 275.822 152.295 270.348 157.629 272.255Z" fill="#004EBD"/>
<path d="M195.828 279.009C199.322 281.762 191.671 288.077 189.672 289.791C186.137 292.542 180.729 294.882 175.863 294.886C166.49 294.817 165.266 289.149 165.161 284.974C164.997 278.48 170.417 271.83 175.161 271.763C179.905 271.696 181.204 275.572 180.984 278.761C180.574 283.945 174.241 287.704 170.597 286.148C170.729 286.608 170.859 287.003 171.109 287.393C175.315 292.183 182.995 289.448 187.479 286.205C189.72 284.551 191.646 282.309 193.024 279.75C193.597 278.673 194.851 278.373 195.828 279.009ZM175.963 277.377C174.034 277.1 172.44 278.205 171.463 279.957C171.026 281.693 171.849 283.394 173.934 282.673C175.725 282.224 177.741 278.786 175.963 277.377Z" fill="#004EBD"/>
<path d="M241.74 256.767C249.421 251.645 258.894 253.303 258.604 265.645C258.714 277.18 245.245 295.793 233.976 291.997C225.59 288.187 233.915 270.448 238.665 275.421C241.088 278.602 236.276 280.726 235.684 283.462C234.615 286.343 235.917 287.964 238.595 286.961C245.08 284.458 250.565 278.005 253.031 270.973C257.385 257.788 248.169 256.786 240.281 263.241C235.697 267.281 232.782 273.198 230.713 279.291C230.379 280.361 230.046 281.431 229.772 282.5C229.602 282.903 229.494 283.37 229.325 283.839C229.325 283.839 229.327 283.905 229.267 283.907C229.27 284.039 229.214 284.173 229.157 284.308C228.21 287.252 227.263 290.196 226.256 293.142L222.735 303.651L222.675 303.653C222.232 305.124 220.689 305.897 219.354 305.338C218.018 304.778 217.376 303.139 217.88 301.666L221.338 291.092C222.452 287.612 223.624 284.065 224.618 280.589C225.67 277.045 226.664 273.569 227.358 270.101C227.673 268.302 227.93 266.571 228.068 264.909C228.107 264.046 228.147 263.249 228.127 262.454C228.107 261.659 228.026 260.865 227.95 260.204L227.948 260.138C227.606 258.49 228.587 256.871 230.139 256.496C231.633 256.189 233.102 257.275 233.386 258.991C233.804 261.3 233.738 263.424 233.609 265.483C235.861 261.839 238.844 258.639 241.74 256.767Z" fill="#004EBD"/>
<path d="M297.922 276.611C299.361 274.117 303.031 276.733 301.472 279.23C299.803 282.129 297.698 284.442 295.285 286.433C289.232 291.775 279.609 293.702 273.327 287.579C271.478 285.708 267.791 282.429 270.607 279.764C270.961 279.489 271.318 279.346 271.676 279.27C274.84 278.452 278.832 277.146 279.52 273.48C279.564 272.816 279.37 272.29 278.77 272.307C272.227 272.491 267.843 279.709 265.108 285.621C263.175 289.985 261.489 294.608 260.165 299.287C259.453 302.026 255.58 300.874 256.172 298.139C258.496 287.862 261.643 276.832 269.46 269.982C273.282 266.692 280.969 264.222 284.178 269.967C286.797 276.194 281.938 281.237 276.831 283.568C283.284 289.355 293.481 283.964 297.922 276.611Z" fill="#004EBD"/>
<path d="M322.505 275.126C325.065 274.193 326.497 278.595 323.879 279.597C319.767 280.906 315.218 281.564 311.039 280.222C312.445 285.952 309.838 292.192 302.828 292.919C298.284 293.776 292.938 291.406 294.109 285.405C295.022 281.135 297.762 277.809 300.88 275.202C300.747 274.675 300.734 274.145 300.899 273.544C301.397 271.872 303.183 271.225 304.582 271.915C304.644 271.98 304.704 271.978 304.766 272.043L304.826 272.041C305.678 272.481 306.412 272.991 307.087 273.569C311.844 276.42 317.334 277.327 322.505 275.126ZM305.855 286.667C307.962 284.486 307.152 280.928 305.238 278.86C305.178 278.861 305.119 278.929 305.061 278.997C302.575 280.459 300.108 282.717 298.919 285.602C298.242 287.345 298.436 287.87 300.183 288.086C302.051 288.299 304.566 287.963 305.855 286.667Z" fill="#004EBD"/>
<path d="M333.771 250.209C355.36 251.129 345.15 291.799 328.547 293.259C315.413 294.158 321.181 275.097 328.453 270.451C331.748 267.706 337.708 268.202 339.559 272.527C340.653 268.252 340.9 263.736 339.18 259.872C338.04 257.517 336.279 256.77 333.939 256.902C329.922 257.214 329.744 250.123 333.771 250.209ZM337.941 277.479C338.057 277.277 338.113 277.142 338.168 276.942C337.271 277.1 336.239 276.665 335.789 275.484C333.472 269.382 327.706 278.959 326.706 282.17C326.262 283.642 325.538 285.916 326.35 287.154C328.593 287.953 331.2 286.487 333.022 284.911C335.077 282.997 336.753 280.364 337.941 277.479Z" fill="#004EBD"/>
<path d="M385.366 274.558C387.208 271.39 391.015 274.665 388.743 277.448C385.032 282.79 379.089 287.731 372.621 286.122C369.356 285.285 367.487 282.619 366.564 279.395C366.223 280.134 365.879 280.807 365.536 281.48C363.236 285.589 360.054 290.453 355.192 290.589C352.551 290.663 350.089 288.345 349.716 285.438C349.009 281.214 350.228 277.134 350.971 273.268C351.835 269.397 357.043 271.042 355.937 274.853C355.334 277.124 352.404 284.832 354.718 286.093C356.838 286.763 358.655 284.988 360.174 283.288C362.1 281.046 363.653 278.283 364.784 275.467C365.407 273.99 365.911 272.517 366.293 270.981C366.349 270.847 366.406 270.713 366.464 270.645C367.34 267.239 372.176 268.429 371.427 272.097C368.767 285.766 380.447 281.99 385.366 274.558Z" fill="#004EBD"/>
<path d="M418.835 272.758C421.011 270.907 423.574 274.88 421.215 276.604C413.09 283.197 381.841 301.844 386.44 276.915C387.801 268.92 398.673 256.944 405.038 266.381C406.173 268.537 406.003 271.327 405.338 273.534C404.407 277.141 399.378 275.425 400.37 271.883C400.804 270.014 400.881 268.288 398.559 269.149C396 270.083 394.137 272.456 392.82 275.012C384.42 292.157 406.19 281.136 412.105 277.456C414.411 275.999 416.655 274.477 418.835 272.758Z" fill="#004EBD"/>
<path d="M429.261 259.933C426.376 271.817 423.199 284.041 423.923 296.09C424.598 299.055 420.359 300.102 419.802 297.067C419.324 294.76 419.329 292.571 419.396 290.447C419.862 280.355 421.887 270.086 424.038 260.079C421.937 260.138 419.837 260.263 417.678 260.39C414.381 260.682 411.025 260.975 407.79 261.331C405.155 261.67 404.621 257.175 407.256 256.836C413.241 255.939 419.172 255.309 425.11 254.943C425.594 252.675 426.079 250.473 426.564 248.272C427.253 244.605 432.454 245.985 431.584 249.59C431.205 251.258 430.828 252.993 430.45 254.661C432.851 254.594 435.252 254.527 437.655 254.526C440.675 255.17 450.717 253.165 450.243 258.218C450.103 259.813 448.751 260.978 447.305 260.82C441.337 259.992 435.264 259.765 429.261 259.933Z" fill="#004EBD"/>
<path d="M451.574 272.172C452.378 273.078 452.413 274.469 451.656 275.419C450.315 277.048 448.911 278.546 447.322 279.851C446.498 280.537 445.673 281.157 444.786 281.712C443.9 282.334 442.952 282.824 441.879 283.186C440.809 283.614 439.675 283.911 438.352 283.882C437.692 283.9 436.968 283.788 436.178 283.412C435.389 283.103 434.654 282.527 434.094 281.747C433.533 280.967 433.151 280.115 432.951 279.325C432.811 278.533 432.733 277.806 432.775 277.075C432.8 275.682 433.01 274.483 433.282 273.348C433.663 271.812 435.082 270.91 436.475 271.335C437.807 271.762 438.628 273.331 438.306 274.865C438.246 274.866 438.247 274.933 438.249 274.999C438.029 275.801 437.869 276.601 437.826 277.265C437.774 277.598 437.78 277.863 437.846 278.061C437.849 278.193 437.912 278.324 437.912 278.324C437.914 278.39 437.914 278.39 438.036 278.453C438.097 278.518 438.279 278.579 438.519 278.572C439.001 278.625 439.72 278.539 440.435 278.32C441.864 277.815 443.285 276.98 444.699 275.879C446.055 274.846 447.345 273.617 448.573 272.256C449.39 271.305 450.712 271.334 451.574 272.172ZM440.32 264.199C439.093 265.559 437.112 265.615 435.818 264.325C434.582 262.967 434.527 260.78 435.693 259.355C436.92 257.994 438.901 257.939 440.195 259.229C441.431 260.587 441.486 262.773 440.32 264.199Z" fill="#004EBD"/>
<path d="M472.576 270.92C475.135 269.986 476.568 274.389 473.95 275.391C469.837 276.7 465.288 277.358 461.11 276.016C462.515 281.746 459.909 287.986 452.899 288.713C448.355 289.569 443.009 287.199 444.179 281.199C445.093 276.929 447.833 273.603 450.951 270.996C450.818 270.469 450.804 269.939 450.969 269.338C451.468 267.666 453.254 267.019 454.653 267.709C454.715 267.774 454.775 267.772 454.836 267.837L454.896 267.835C455.748 268.275 456.482 268.785 457.158 269.363C461.915 272.214 467.405 273.121 472.576 270.92ZM455.925 282.461C458.033 280.28 457.223 276.722 455.308 274.653C455.248 274.655 455.19 274.723 455.132 274.791C452.645 276.253 450.179 278.511 448.99 281.395C448.313 283.138 448.506 283.663 450.254 283.88C452.122 284.093 454.636 283.757 455.925 282.461Z" fill="#004EBD"/>
<path d="M512.148 270.342C514.011 267.968 517.336 271.191 515.413 273.566C508.825 281.509 494.44 292.389 493.256 273.988C493.043 272.667 492.911 272.207 491.774 272.371C486.421 274.511 483.096 283.224 478.637 287.461C476.716 289.902 472.302 291.153 470.885 287.346C469.433 282.149 472.461 275.963 474.142 271.142C475.497 267.722 480.181 270.044 478.826 273.464C477.817 276.343 476.631 279.361 475.988 282.429C478.797 279.499 481.097 275.389 483.788 272.529C485.541 270.557 487.53 268.445 490.213 267.641C493.013 266.7 496.6 268.39 497.225 271.755C498.126 274.116 496.975 278.525 499.52 279.382C504.327 279.446 508.875 273.948 512.148 270.342Z" fill="#004EBD"/>
<path d="M529.379 261.835C531.863 262.694 533.264 265.837 533.091 268.495C532.944 272.212 527.956 272.153 527.923 268.441C527.896 267.38 527.653 267.255 527.114 267.336C524.178 267.617 520.689 269.837 518.832 272.409C519.013 272.47 519.135 272.533 519.315 272.528C522.038 273.314 525.547 274.276 527.649 276.671C530.372 279.844 529.594 284.706 527.701 288.274C524.369 294.335 518.625 297.613 512.983 300.224C502.05 304.974 490.382 306.826 478.817 308.012C477.62 308.178 476.513 307.148 476.418 305.758C476.265 304.436 477.195 303.217 478.454 303.115C492.596 301.724 509.063 299.605 520.654 289.93C523.12 287.673 527.027 282.988 524.363 279.747C522.4 278.144 518.751 278.777 516.382 277.716C513.777 276.861 512.311 273.52 513.444 270.769C515.652 265.403 524.044 259.929 529.379 261.835Z" fill="#004EBD"/>
</svg>
