<svg width="745" height="278" viewBox="0 0 745 278" fill="none" xmlns="http://www.w3.org/2000/svg">
<path d="M81.49 22.6H109.01L144.21 86.216V22.6H169.042V125H141.522L106.45 61.384V125H81.49V22.6ZM237.618 126.408C227.293 126.408 218.077 124.189 209.97 119.752C201.949 115.315 195.677 109.128 191.154 101.192C186.631 93.1707 184.37 83.9973 184.37 73.672C184.37 63.432 186.631 54.344 191.154 46.408C195.677 38.472 201.949 32.2853 209.97 27.848C218.077 23.4107 227.293 21.192 237.618 21.192C247.943 21.192 257.117 23.4107 265.138 27.848C273.245 32.2853 279.559 38.472 284.082 46.408C288.605 54.344 290.866 63.432 290.866 73.672C290.866 83.9973 288.605 93.1707 284.082 101.192C279.559 109.128 273.245 115.315 265.138 119.752C257.117 124.189 247.943 126.408 237.618 126.408ZM209.97 73.672C209.97 79.3893 211.122 84.4667 213.426 88.904C215.815 93.3413 219.101 96.7973 223.282 99.272C227.463 101.661 232.242 102.856 237.618 102.856C242.994 102.856 247.773 101.661 251.954 99.272C256.221 96.7973 259.506 93.3413 261.81 88.904C264.199 84.4667 265.394 79.3893 265.394 73.672C265.394 68.04 264.199 63.048 261.81 58.696C259.506 54.2587 256.221 50.8453 251.954 48.456C247.773 45.9813 242.994 44.744 237.618 44.744C232.242 44.744 227.463 45.9813 223.282 48.456C219.101 50.8453 215.815 54.2587 213.426 58.696C211.122 63.048 209.97 68.04 209.97 73.672ZM341.184 126.408C333.333 126.408 326.379 124.915 320.32 121.928C314.261 118.941 309.525 114.803 306.112 109.512C302.784 104.221 301.12 98.1627 301.12 91.336H326.72C326.72 95.176 327.915 98.3333 330.304 100.808C332.779 103.283 336.235 104.52 340.672 104.52C344.085 104.52 346.816 103.795 348.864 102.344C350.912 100.808 351.936 98.6747 351.936 95.944C351.936 93.0427 350.741 90.7387 348.352 89.032C345.963 87.24 342.037 85.1493 336.576 82.76L334.144 81.608C327.403 78.7067 321.941 76.0187 317.76 73.544C313.579 70.984 310.123 67.8267 307.392 64.072C304.661 60.232 303.296 55.5387 303.296 49.992C303.296 44.104 304.832 38.984 307.904 34.632C311.061 30.28 315.328 26.952 320.704 24.648C326.08 22.344 332.096 21.192 338.752 21.192C345.664 21.192 351.723 22.6 356.928 25.416C362.219 28.1467 366.272 32.0293 369.088 37.064C371.989 42.0133 373.44 47.7733 373.44 54.344H349.12C349.12 51.016 348.181 48.4133 346.304 46.536C344.427 44.5733 341.909 43.592 338.752 43.592C335.936 43.592 333.589 44.36 331.712 45.896C329.835 47.3467 328.896 49.1813 328.896 51.4C328.896 53.0213 329.451 54.3867 330.56 55.496C331.669 56.6053 333.205 57.6293 335.168 58.568C337.131 59.5067 340.373 60.872 344.896 62.664C345.323 62.7493 346.901 63.3467 349.632 64.456C355.52 66.76 360.469 69.1493 364.48 71.624C368.491 74.0987 371.733 77.256 374.208 81.096C376.683 84.936 377.92 89.672 377.92 95.304C377.92 101.704 376.341 107.251 373.184 111.944C370.112 116.637 365.803 120.221 360.256 122.696C354.709 125.171 348.352 126.408 341.184 126.408ZM428.184 126.408C420.333 126.408 413.379 124.915 407.32 121.928C401.261 118.941 396.525 114.803 393.112 109.512C389.784 104.221 388.12 98.1627 388.12 91.336H413.72C413.72 95.176 414.915 98.3333 417.304 100.808C419.779 103.283 423.235 104.52 427.672 104.52C431.085 104.52 433.816 103.795 435.864 102.344C437.912 100.808 438.936 98.6747 438.936 95.944C438.936 93.0427 437.741 90.7387 435.352 89.032C432.963 87.24 429.037 85.1493 423.576 82.76L421.144 81.608C414.403 78.7067 408.941 76.0187 404.76 73.544C400.579 70.984 397.123 67.8267 394.392 64.072C391.661 60.232 390.296 55.5387 390.296 49.992C390.296 44.104 391.832 38.984 394.904 34.632C398.061 30.28 402.328 26.952 407.704 24.648C413.08 22.344 419.096 21.192 425.752 21.192C432.664 21.192 438.723 22.6 443.928 25.416C449.219 28.1467 453.272 32.0293 456.088 37.064C458.989 42.0133 460.44 47.7733 460.44 54.344H436.12C436.12 51.016 435.181 48.4133 433.304 46.536C431.427 44.5733 428.909 43.592 425.752 43.592C422.936 43.592 420.589 44.36 418.712 45.896C416.835 47.3467 415.896 49.1813 415.896 51.4C415.896 53.0213 416.451 54.3867 417.56 55.496C418.669 56.6053 420.205 57.6293 422.168 58.568C424.131 59.5067 427.373 60.872 431.896 62.664C432.323 62.7493 433.901 63.3467 436.632 64.456C442.52 66.76 447.469 69.1493 451.48 71.624C455.491 74.0987 458.733 77.256 461.208 81.096C463.683 84.936 464.92 89.672 464.92 95.304C464.92 101.704 463.341 107.251 460.184 111.944C457.112 116.637 452.803 120.221 447.256 122.696C441.709 125.171 435.352 126.408 428.184 126.408ZM528.368 126.408C518.043 126.408 508.827 124.189 500.72 119.752C492.699 115.315 486.427 109.128 481.904 101.192C477.381 93.1707 475.12 83.9973 475.12 73.672C475.12 63.432 477.381 54.344 481.904 46.408C486.427 38.472 492.699 32.2853 500.72 27.848C508.827 23.4107 518.043 21.192 528.368 21.192C538.693 21.192 547.867 23.4107 555.888 27.848C563.995 32.2853 570.309 38.472 574.832 46.408C579.355 54.344 581.616 63.432 581.616 73.672C581.616 83.9973 579.355 93.1707 574.832 101.192C570.309 109.128 563.995 115.315 555.888 119.752C547.867 124.189 538.693 126.408 528.368 126.408ZM500.72 73.672C500.72 79.3893 501.872 84.4667 504.176 88.904C506.565 93.3413 509.851 96.7973 514.032 99.272C518.213 101.661 522.992 102.856 528.368 102.856C533.744 102.856 538.523 101.661 542.704 99.272C546.971 96.7973 550.256 93.3413 552.56 88.904C554.949 84.4667 556.144 79.3893 556.144 73.672C556.144 68.04 554.949 63.048 552.56 58.696C550.256 54.2587 546.971 50.8453 542.704 48.456C538.523 45.9813 533.744 44.744 528.368 44.744C522.992 44.744 518.213 45.9813 514.032 48.456C509.851 50.8453 506.565 54.2587 504.176 58.696C501.872 63.048 500.72 68.04 500.72 73.672ZM631.934 126.408C624.083 126.408 617.129 124.915 611.07 121.928C605.011 118.941 600.275 114.803 596.862 109.512C593.534 104.221 591.87 98.1627 591.87 91.336H617.47C617.47 95.176 618.665 98.3333 621.054 100.808C623.529 103.283 626.985 104.52 631.422 104.52C634.835 104.52 637.566 103.795 639.614 102.344C641.662 100.808 642.686 98.6747 642.686 95.944C642.686 93.0427 641.491 90.7387 639.102 89.032C636.713 87.24 632.787 85.1493 627.326 82.76L624.894 81.608C618.153 78.7067 612.691 76.0187 608.51 73.544C604.329 70.984 600.873 67.8267 598.142 64.072C595.411 60.232 594.046 55.5387 594.046 49.992C594.046 44.104 595.582 38.984 598.654 34.632C601.811 30.28 606.078 26.952 611.454 24.648C616.83 22.344 622.846 21.192 629.502 21.192C636.414 21.192 642.473 22.6 647.678 25.416C652.969 28.1467 657.022 32.0293 659.838 37.064C662.739 42.0133 664.19 47.7733 664.19 54.344H639.87C639.87 51.016 638.931 48.4133 637.054 46.536C635.177 44.5733 632.659 43.592 629.502 43.592C626.686 43.592 624.339 44.36 622.462 45.896C620.585 47.3467 619.646 49.1813 619.646 51.4C619.646 53.0213 620.201 54.3867 621.31 55.496C622.419 56.6053 623.955 57.6293 625.918 58.568C627.881 59.5067 631.123 60.872 635.646 62.664C636.073 62.7493 637.651 63.3467 640.382 64.456C646.27 66.76 651.219 69.1493 655.23 71.624C659.241 74.0987 662.483 77.256 664.958 81.096C667.433 84.936 668.67 89.672 668.67 95.304C668.67 101.704 667.091 107.251 663.934 111.944C660.862 116.637 656.553 120.221 651.006 122.696C645.459 125.171 639.102 126.408 631.934 126.408ZM68.838 257.408C58.854 257.408 49.894 255.189 41.958 250.752C34.1073 246.315 27.9633 240.128 23.526 232.192C19.0887 224.171 16.87 214.997 16.87 204.672C16.87 194.432 19.0887 185.344 23.526 177.408C27.9633 169.387 34.0647 163.2 41.83 158.848C49.6807 154.411 58.598 152.192 68.582 152.192C77.542 152.192 85.6913 154.069 93.03 157.824C100.369 161.493 106.427 166.571 111.206 173.056C115.985 179.541 119.185 186.923 120.806 195.2H94.95C93.414 189.653 90.2567 185.045 85.478 181.376C80.7847 177.621 75.3233 175.744 69.094 175.744C64.0593 175.744 59.494 176.981 55.398 179.456C51.3873 181.845 48.23 185.259 45.926 189.696C43.622 194.048 42.47 199.04 42.47 204.672C42.47 210.304 43.622 215.296 45.926 219.648C48.3153 223.915 51.558 227.243 55.654 229.632C59.75 232.021 64.3153 233.216 69.35 233.216C75.75 233.216 81.2967 231.467 85.99 227.968C90.6833 224.469 93.798 219.861 95.334 214.144H121.062C119.697 222.592 116.625 230.101 111.846 236.672C107.153 243.243 101.094 248.363 93.67 252.032C86.246 255.616 77.9687 257.408 68.838 257.408ZM136.365 153.6H161.325V233.6H212.909V256H136.365V153.6ZM225.74 153.6H250.7V256H225.74V153.6ZM271.24 153.6H347.144V175.36H296.2V192.512H339.464V214.4H296.2V234.112H347.144V256H271.24V153.6ZM365.74 153.6H393.26L428.46 217.216V153.6H453.292V256H425.772L390.7 192.384V256H365.74V153.6ZM495.372 176H466.06V153.6H549.132V176H520.204V256H495.372V176ZM561.99 153.6H637.894V175.36H586.95V192.512H630.214V214.4H586.95V234.112H637.894V256H561.99V153.6ZM691.434 257.408C683.583 257.408 676.629 255.915 670.57 252.928C664.511 249.941 659.775 245.803 656.362 240.512C653.034 235.221 651.37 229.163 651.37 222.336H676.97C676.97 226.176 678.165 229.333 680.554 231.808C683.029 234.283 686.485 235.52 690.922 235.52C694.335 235.52 697.066 234.795 699.114 233.344C701.162 231.808 702.186 229.675 702.186 226.944C702.186 224.043 700.991 221.739 698.602 220.032C696.213 218.24 692.287 216.149 686.826 213.76L684.394 212.608C677.653 209.707 672.191 207.019 668.01 204.544C663.829 201.984 660.373 198.827 657.642 195.072C654.911 191.232 653.546 186.539 653.546 180.992C653.546 175.104 655.082 169.984 658.154 165.632C661.311 161.28 665.578 157.952 670.954 155.648C676.33 153.344 682.346 152.192 689.002 152.192C695.914 152.192 701.973 153.6 707.178 156.416C712.469 159.147 716.522 163.029 719.338 168.064C722.239 173.013 723.69 178.773 723.69 185.344H699.37C699.37 182.016 698.431 179.413 696.554 177.536C694.677 175.573 692.159 174.592 689.002 174.592C686.186 174.592 683.839 175.36 681.962 176.896C680.085 178.347 679.146 180.181 679.146 182.4C679.146 184.021 679.701 185.387 680.81 186.496C681.919 187.605 683.455 188.629 685.418 189.568C687.381 190.507 690.623 191.872 695.146 193.664C695.573 193.749 697.151 194.347 699.882 195.456C705.77 197.76 710.719 200.149 714.73 202.624C718.741 205.099 721.983 208.256 724.458 212.096C726.933 215.936 728.17 220.672 728.17 226.304C728.17 232.704 726.591 238.251 723.434 242.944C720.362 247.637 716.053 251.221 710.506 253.696C704.959 256.171 698.602 257.408 691.434 257.408Z" fill="white"/>
<path d="M163.642 120.506C176.821 100.814 196.558 122.243 180.858 139.231C179.978 140.116 179.038 141.002 178.096 141.818C183.115 140.873 185.632 143.434 184.335 149.828C181.241 164.417 157.872 168.443 146.886 168.15C144.007 168.17 144.066 162.743 146.948 162.866C180.346 164.66 188.286 138.71 170.832 146.974C169.647 147.654 168.403 148.336 167.216 148.945C167.098 149.02 166.921 149.168 166.743 149.245L166.741 149.174C166.565 149.322 166.386 149.399 166.208 149.476C163.116 150.717 161.428 144.988 164.519 143.677C171.282 140.25 180.848 136.091 181.951 126.348C182.497 118.55 175.242 116.068 170.595 120.213C168.06 122.221 166.215 125.563 164.727 128.823C160.79 137.871 158.734 147.929 156.917 157.909C156.285 161.855 151.096 160.521 151.908 156.569C154.452 144.211 157.096 130.992 163.642 120.506Z" fill="#0FFF94"/>
<path d="M224.278 139.85C225.478 137.171 229.004 139.272 227.866 142.021C224.392 153.052 213.485 156.254 214.249 142.096C211.056 144.197 209.42 148.888 207.763 152.581C206.216 155.843 201.897 153.196 203.143 149.873C204.319 146.124 206.052 140.43 205.19 136.745C200.476 140.607 196.176 149.523 193.567 156.316C193.072 158.331 190.872 159.186 189.652 158.297C186.72 155.963 190.395 148.565 190.738 145.128C191.504 141.82 192.273 138.655 193.101 135.416C194.034 131.532 199.055 133.371 198.06 137.186C197.671 138.554 197.341 139.921 197.012 141.288C198.281 139.035 199.609 136.708 200.66 135.39C204.728 129.479 209.584 132.037 209.622 139.103C214.088 134.892 219.829 134.067 218.682 144.525C218.705 145.524 218.536 146.029 219.143 146.367C221.6 146.217 223.008 142.104 224.278 139.85Z" fill="#0FFF94"/>
<path d="M249.095 137.777C251.653 136.768 253.078 141.505 250.463 142.587C246.354 144.003 241.811 144.718 237.639 143.28C239.036 149.446 236.427 156.168 229.425 156.961C224.886 157.891 219.55 155.348 220.725 148.886C221.643 144.288 224.382 140.704 227.499 137.892C227.367 137.325 227.354 136.755 227.52 136.107C228.019 134.306 229.804 133.607 231.2 134.348C231.262 134.418 231.322 134.416 231.383 134.485L231.443 134.483C232.294 134.956 233.026 135.504 233.7 136.125C238.448 139.186 243.929 140.154 249.095 137.777ZM232.454 150.226C234.562 147.875 233.756 144.046 231.847 141.823C231.787 141.825 231.729 141.898 231.67 141.971C229.186 143.549 226.72 145.983 225.53 149.09C224.851 150.968 225.044 151.533 226.789 151.763C228.654 151.989 231.166 151.624 232.454 150.226Z" fill="#0FFF94"/>
<path d="M284.855 137.925C286.698 134.512 290.496 138.032 288.224 141.03C284.512 146.788 278.572 152.116 272.114 150.394C268.854 149.498 266.99 146.631 266.073 143.162C265.731 143.958 265.387 144.683 265.043 145.408C262.742 149.835 259.559 155.076 254.703 155.23C252.065 155.314 249.61 152.822 249.24 149.693C248.538 145.147 249.76 140.754 250.507 136.59C251.374 132.422 256.573 134.184 255.465 138.288C254.859 140.734 251.925 149.037 254.235 150.391C256.351 151.109 258.168 149.195 259.687 147.362C261.613 144.946 263.166 141.97 264.299 138.936C264.923 137.345 265.428 135.759 265.811 134.105C265.867 133.96 265.924 133.816 265.983 133.743C266.861 130.074 271.689 131.348 270.937 135.298C268.266 150.016 279.934 145.934 284.855 137.925Z" fill="#0FFF94"/>
<path d="M302.086 128.027C304.566 128.947 305.961 132.329 305.785 135.19C305.635 139.192 300.654 139.136 300.625 135.14C300.599 133.999 300.356 133.864 299.818 133.952C296.885 134.26 293.399 136.655 291.541 139.426C291.722 139.492 291.844 139.559 292.024 139.553C294.742 140.395 298.245 141.426 300.342 144C303.058 147.412 302.275 152.647 300.381 156.491C297.047 163.021 291.306 166.559 285.67 169.379C274.745 174.509 263.091 176.521 251.541 177.816C250.345 177.997 249.24 176.89 249.147 175.393C248.995 173.971 249.926 172.656 251.183 172.545C265.308 171.025 281.755 168.718 293.342 158.285C295.807 155.851 299.714 150.802 297.057 147.317C295.098 145.595 291.454 146.281 289.089 145.143C286.488 144.226 285.028 140.632 286.162 137.67C288.373 131.889 296.761 125.983 302.086 128.027Z" fill="#0FFF94"/>
<path d="M340.227 135.238C343.712 138.196 336.065 145.007 334.066 146.855C330.533 149.822 325.13 152.35 320.27 152.361C310.91 152.302 309.694 146.202 309.593 141.708C309.437 134.717 314.857 127.55 319.595 127.47C324.333 127.391 325.626 131.562 325.402 134.995C324.987 140.576 318.658 144.632 315.021 142.963C315.152 143.458 315.281 143.883 315.531 144.303C319.725 149.452 327.399 146.495 331.88 142.998C334.12 141.214 336.046 138.797 337.425 136.041C337.999 134.88 339.251 134.555 340.227 135.238ZM320.39 133.513C318.463 133.217 316.87 134.41 315.892 136.297C315.454 138.166 316.275 139.996 318.357 139.216C320.146 138.731 322.163 135.027 320.39 133.513Z" fill="#0FFF94"/>
<path d="M386.102 111.223C393.778 105.697 403.237 107.467 402.933 120.753C403.031 133.171 389.559 153.229 378.309 149.161C369.939 145.072 378.271 125.963 383.01 131.308C385.427 134.729 380.618 137.024 380.024 139.969C378.953 143.073 380.252 144.816 382.928 143.732C389.407 141.027 394.891 134.072 397.362 126.498C401.725 112.297 392.522 111.233 384.638 118.194C380.055 122.551 377.138 128.925 375.064 135.487C374.73 136.64 374.396 137.792 374.121 138.943C373.951 139.377 373.842 139.88 373.674 140.385C373.674 140.385 373.675 140.456 373.615 140.458C373.619 140.601 373.562 140.746 373.505 140.89C372.556 144.061 371.607 147.232 370.598 150.405L367.07 161.724L367.01 161.726C366.566 163.31 365.025 164.145 363.691 163.545C362.358 162.944 361.719 161.18 362.223 159.594L365.689 148.205C366.805 144.458 367.98 140.637 368.976 136.894C370.031 133.077 371.027 129.334 371.724 125.6C372.041 123.662 372.299 121.798 372.439 120.009C372.478 119.08 372.519 118.222 372.5 117.366C372.481 116.51 372.402 115.656 372.326 114.945L372.324 114.873C371.985 113.1 372.966 111.355 374.517 110.949C376.009 110.616 377.475 111.783 377.756 113.63C378.172 116.115 378.103 118.402 377.972 120.619C380.224 116.692 383.207 113.243 386.102 111.223Z" fill="#0FFF94"/>
<path d="M442.186 132.497C443.626 129.81 447.289 132.621 445.729 135.311C444.059 138.434 441.955 140.928 439.543 143.075C433.492 148.835 423.879 150.925 417.613 144.342C415.768 142.331 412.09 138.807 414.905 135.934C415.259 135.637 415.615 135.483 415.973 135.4C419.133 134.515 423.121 133.103 423.813 129.155C423.857 128.44 423.665 127.875 423.065 127.894C416.53 128.102 412.144 135.879 409.406 142.248C407.472 146.949 405.783 151.928 404.455 156.967C403.741 159.916 399.874 158.683 400.468 155.737C402.801 144.67 405.956 132.792 413.77 125.406C417.591 121.858 425.271 119.187 428.468 125.367C431.078 132.065 426.219 137.502 421.116 140.02C427.554 146.239 437.744 140.419 442.186 132.497Z" fill="#0FFF94"/>
<path d="M466.739 130.861C469.296 129.851 470.722 134.589 468.106 135.671C463.998 137.087 459.454 137.802 455.282 136.364C456.68 142.53 454.07 149.251 447.068 150.045C442.529 150.974 437.193 148.431 438.369 141.97C439.286 137.372 442.026 133.787 445.143 130.976C445.01 130.409 444.998 129.838 445.163 129.191C445.663 127.39 447.447 126.691 448.844 127.432C448.905 127.501 448.965 127.499 449.027 127.569L449.087 127.567C449.937 128.04 450.669 128.587 451.343 129.208C456.091 132.27 461.572 133.238 466.739 130.861ZM450.098 143.31C452.205 140.959 451.4 137.13 449.49 134.906C449.43 134.908 449.372 134.982 449.314 135.055C446.829 136.633 444.363 139.067 443.173 142.174C442.495 144.051 442.687 144.616 444.432 144.846C446.297 145.073 448.809 144.707 450.098 143.31Z" fill="#0FFF94"/>
<path d="M478.017 104.019C499.577 104.976 489.335 148.773 472.752 150.371C459.635 151.359 465.417 130.831 472.684 125.818C475.978 122.858 481.929 123.382 483.773 128.035C484.87 123.432 485.122 118.57 483.409 114.413C482.273 111.879 480.515 111.078 478.178 111.224C474.166 111.566 473.996 103.933 478.017 104.019ZM482.152 133.369C482.267 133.151 482.324 133.006 482.379 132.791C481.483 132.962 480.453 132.495 480.004 131.224C477.698 124.659 471.929 134.979 470.926 138.437C470.481 140.021 469.756 142.471 470.566 143.802C472.805 144.659 475.409 143.077 477.231 141.377C479.285 139.313 480.962 136.476 482.152 133.369Z" fill="#0FFF94"/>
<path d="M529.517 130.15C531.36 126.737 535.159 130.257 532.886 133.256C529.174 139.013 523.234 144.341 516.776 142.619C513.516 141.723 511.652 138.856 510.735 135.387C510.393 136.183 510.049 136.908 509.705 137.633C507.404 142.06 504.221 147.301 499.365 147.455C496.727 147.539 494.272 145.047 493.902 141.918C493.2 137.372 494.422 132.979 495.169 128.815C496.036 124.647 501.235 126.409 500.127 130.513C499.522 132.96 496.587 141.262 498.897 142.616C501.013 143.334 502.83 141.42 504.349 139.587C506.275 137.171 507.828 134.195 508.961 131.161C509.585 129.57 510.09 127.984 510.473 126.33C510.53 126.185 510.586 126.041 510.645 125.968C511.523 122.299 516.351 123.573 515.599 127.523C512.928 142.241 524.596 138.159 529.517 130.15Z" fill="#0FFF94"/>
<path d="M562.943 128.16C565.118 126.164 567.674 130.437 565.315 132.296C557.195 139.407 525.966 159.53 530.587 132.686C531.954 124.077 542.825 111.168 549.171 121.317C550.303 123.637 550.13 126.64 549.463 129.017C548.53 132.901 543.509 131.062 544.504 127.247C544.939 125.235 545.018 123.376 542.699 124.307C540.141 125.316 538.279 127.873 536.96 130.628C528.553 149.097 550.306 137.199 556.217 133.228C558.521 131.656 560.765 130.014 562.943 128.16Z" fill="#0FFF94"/>
<path d="M573.369 114.338C570.475 127.136 567.289 140.3 567.998 153.269C568.67 156.46 564.435 157.594 563.882 154.328C563.407 151.844 563.414 149.488 563.483 147.202C563.961 136.337 565.994 125.279 568.153 114.504C566.055 114.57 563.958 114.708 561.801 114.848C558.509 115.167 555.156 115.488 551.925 115.876C549.294 116.245 548.766 111.408 551.397 111.039C557.375 110.063 563.299 109.376 569.23 108.973C569.715 106.531 570.202 104.159 570.689 101.788C571.381 97.8404 576.574 99.3171 575.7 103.2C575.321 104.996 574.942 106.864 574.562 108.661C576.961 108.584 579.359 108.508 581.758 108.503C584.774 109.193 594.804 107.018 594.326 112.458C594.184 114.176 592.832 115.432 591.388 115.264C585.429 114.383 579.364 114.147 573.369 114.338Z" fill="#0FFF94"/>
<path d="M595.64 127.478C596.441 128.452 596.475 129.95 595.718 130.973C594.377 132.729 592.973 134.344 591.384 135.751C590.561 136.491 589.736 137.16 588.849 137.759C587.964 138.429 587.016 138.959 585.945 139.35C584.876 139.812 583.743 140.134 582.422 140.104C581.763 140.125 581.04 140.006 580.251 139.602C579.464 139.271 578.73 138.651 578.171 137.813C577.613 136.974 577.232 136.058 577.033 135.208C576.894 134.355 576.817 133.573 576.859 132.786C576.886 131.286 577.097 129.995 577.37 128.773C577.753 127.119 579.171 126.146 580.561 126.601C581.891 127.058 582.709 128.746 582.386 130.398C582.326 130.4 582.327 130.471 582.329 130.542C582.108 131.406 581.947 132.268 581.903 132.983C581.851 133.341 581.858 133.627 581.922 133.839C581.926 133.981 581.989 134.122 581.989 134.122C581.99 134.193 581.99 134.193 582.112 134.261C582.173 134.33 582.355 134.396 582.595 134.388C583.076 134.445 583.794 134.35 584.508 134.113C585.936 133.568 587.356 132.667 588.769 131.48C590.124 130.366 591.415 129.04 592.642 127.573C593.459 126.548 594.779 126.578 595.64 127.478ZM584.409 118.912C583.182 120.379 581.204 120.442 579.913 119.055C578.68 117.595 578.628 115.241 579.793 113.705C581.021 112.239 582.999 112.176 584.29 113.562C585.522 115.022 585.575 117.376 584.409 118.912Z" fill="#0FFF94"/>
<path d="M616.614 126.098C619.171 125.089 620.597 129.826 617.981 130.908C613.873 132.324 609.33 133.039 605.158 131.601C606.555 137.767 603.946 144.489 596.944 145.282C592.405 146.212 587.068 143.669 588.244 137.207C589.162 132.609 591.901 129.025 595.018 126.213C594.886 125.646 594.873 125.076 595.039 124.428C595.538 122.627 597.323 121.928 598.719 122.669C598.781 122.739 598.84 122.737 598.902 122.806L598.962 122.804C599.812 123.277 600.545 123.825 601.218 124.446C605.966 127.507 611.448 128.475 616.614 126.098ZM599.973 138.547C602.081 136.196 601.275 132.367 599.366 130.144C599.306 130.146 599.247 130.219 599.189 130.292C596.704 131.87 594.239 134.304 593.048 137.411C592.37 139.289 592.563 139.854 594.308 140.084C596.173 140.31 598.685 139.945 599.973 138.547Z" fill="#0FFF94"/>
<path d="M656.135 125.413C657.997 122.855 661.314 126.319 659.392 128.879C652.803 137.44 638.426 149.175 637.264 129.368C637.052 127.947 636.921 127.451 635.786 127.63C630.437 129.941 627.107 139.327 622.649 143.894C620.728 146.525 616.319 147.879 614.908 143.783C613.463 138.19 616.494 131.527 618.178 126.334C619.536 122.65 624.211 125.143 622.853 128.826C621.842 131.928 620.655 135.178 620.009 138.482C622.818 135.323 625.119 130.896 627.81 127.812C629.563 125.686 631.552 123.41 634.232 122.54C637.029 121.523 640.609 123.337 641.23 126.957C642.127 129.499 640.973 134.246 643.513 135.165C648.314 135.227 652.862 129.3 656.135 125.413Z" fill="#0FFF94"/>
<path d="M673.352 116.229C675.832 117.149 677.227 120.531 677.051 123.392C676.901 127.394 671.92 127.338 671.891 123.342C671.865 122.201 671.622 122.066 671.084 122.154C668.151 122.461 664.665 124.856 662.807 127.628C662.988 127.694 663.11 127.761 663.29 127.755C666.008 128.597 669.511 129.628 671.608 132.202C674.324 135.614 673.541 140.849 671.647 144.693C668.313 151.223 662.572 154.76 656.936 157.581C646.011 162.71 634.357 164.723 622.807 166.018C621.611 166.198 620.506 165.091 620.413 163.595C620.261 162.173 621.192 160.858 622.449 160.747C636.574 159.227 653.021 156.92 664.608 146.487C667.073 144.053 670.98 139.003 668.323 135.519C666.364 133.796 662.72 134.483 660.355 133.345C657.754 132.428 656.294 128.834 657.428 125.872C659.639 120.091 668.026 114.185 673.352 116.229Z" fill="#0FFF94"/>
</svg>
